PathFileType	4	(X/Y/Z)	output.trc
DataRate	CameraRate	NumFrames	NumMarkers	Units	OrigDataRate	OrigDataStartFrame	OrigNumFrames
128	128	21	47	mm	128	1820	2911
Frame#	Time	C7			LSHO			RSHO			CLAV			T10			LUPA			RELB			LELB			LFRA			RFRA			RWRB			RWRA			RFIN			LWRB			LWRA			LFIN			RASI			LASI			RPSI			LPSI			RANK			LANK			LMMA			LHEE			LTOE			RMMA			RHEE			RTOE			RMT5			LMT5			RKNE			LKNE			LMFC			RMFC			RFM2			LFM2			RTP2			RTP3			RTA3			LTP2			LTP3			LTA3			LBHD			RBHD			RFHD			RGTR			LGTR			
		X1	Y1	Z1	X2	Y2	Z2	X3	Y3	Z3	X4	Y4	Z4	X5	Y5	Z5	X6	Y6	Z6	X7	Y7	Z7	X8	Y8	Z8	X9	Y9	Z9	X10	Y10	Z10	X11	Y11	Z11	X12	Y12	Z12	X13	Y13	Z13	X14	Y14	Z14	X15	Y15	Z15	X16	Y16	Z16	X17	Y17	Z17	X18	Y18	Z18	X19	Y19	Z19	X20	Y20	Z20	X21	Y21	Z21	X22	Y22	Z22	X23	Y23	Z23	X24	Y24	Z24	X25	Y25	Z25	X26	Y26	Z26	X27	Y27	Z27	X28	Y28	Z28	X29	Y29	Z29	X30	Y30	Z30	X31	Y31	Z31	X32	Y32	Z32	X33	Y33	Z33	X34	Y34	Z34	X35	Y35	Z35	X36	Y36	Z36	X37	Y37	Z37	X38	Y38	Z38	X39	Y39	Z39	X40	Y40	Z40	X41	Y41	Z41	X42	Y42	Z42	X43	Y43	Z43	X44	Y44	Z44	X45	Y45	Z45	X46	Y46	Z46	X47	Y47	Z47	
1820	14.21094	1558.96185	1529.45441	1544.63854	1458.82474	1285.36934	1452.57897	1138.26405	1168.39711	1017.77337	1008.35049	856.83267	872.24071	775.52217	879.72215	899.31647	803.34901	1086.03641	1062.88545	1157.77658	1156.11085	70.92697	70.89679	73.81338	41.27653	32.76097	70.05422	42.50507	37.48185	26.71706	28.54200	507.87686	518.25490	535.42157	523.33588	669.32774	676.66224	313.34755	372.92997	339.40429	306.58969	340.95176	333.23610	1444.35160	1844.35160	1474.35160	1444.35160	1844.35160	1614.35160	1644.35160	1844.35160	1614.35160	856.83267	879.72215	
1821	14.21875	1559.44607	1529.73962	1545.07697	1460.53251	1284.34012	1453.25599	1138.12141	1168.09441	1018.18936	1008.93423	857.31387	873.05058	776.37951	880.16366	900.21391	803.81852	1086.14066	1063.14397	1156.76786	1155.03804	70.94641	70.86190	73.81285	41.20561	32.83769	70.05369	42.69899	37.68749	27.09839	28.87776	507.92369	518.00614	535.29062	523.24067	669.09798	676.53441	314.02316	372.86685	339.10752	306.50144	340.81149	332.92379	1444.75422	1844.75422	1474.75422	1444.75422	1844.75422	1614.75422	1644.75422	1844.75422	1614.75422	857.31387	880.16366	
1822	14.22656	1559.86142	1530.01788	1545.62580	1461.76008	1283.35096	1454.17703	1138.01068	1167.78430	1018.54418	1009.45727	857.77334	873.74449	777.14543	880.58039	901.04306	804.80613	1086.33471	1063.33277	1155.75511	1154.02482	70.90038	70.80840	73.69461	41.17899	32.98148	69.93545	42.42527	37.90307	27.40929	29.01164	507.88844	517.73944	535.07738	523.16511	669.11165	676.46989	312.95930	372.81614	339.37415	306.23438	340.58632	332.81350	1445.16837	1845.16837	1475.16837	1445.16837	1845.16837	1615.16837	1645.16837	1845.16837	1615.16837	857.77334	880.58039	
1823	14.23438	1560.17748	1530.20328	1546.20958	1463.33907	1282.29458	1454.97501	1137.87028	1167.41305	1018.84264	1009.91629	858.26952	874.45398	777.90448	880.76210	901.69518	805.50593	1086.51016	1063.59910	1154.71579	1153.05202	71.03251	70.80991	73.68119	41.15934	33.10542	69.92203	42.65694	38.60482	27.73612	29.43332	507.82545	517.58812	534.99228	523.13574	669.11998	676.28399	312.96657	372.67034	339.22408	305.97701	340.41215	332.57023	1445.53011	1845.53011	1475.53011	1445.53011	1845.53011	1615.53011	1645.53011	1845.53011	1615.53011	858.26952	880.76210	
1824	14.24219	1560.45150	1530.31440	1546.66928	1464.74590	1281.30388	1455.59443	1137.75626	1166.99032	1019.12438	1010.40112	858.75320	875.25859	778.62674	881.17843	902.29179	806.32020	1086.73344	1063.80657	1153.71086	1151.96982	71.03785	70.84084	73.64976	41.14964	33.17504	69.89060	42.58721	38.80480	28.02580	29.27111	507.63431	517.53936	534.81727	523.09148	669.12691	676.27008	312.86043	372.43393	339.10432	305.75683	340.04091	332.29770	1445.81173	1845.81173	1475.81173	1445.81173	1845.81173	1615.81173	1645.81173	1845.81173	1615.81173	858.75320	881.17843	
1825	14.25000	1560.72929	1530.44218	1547.14034	1465.81782	1280.23826	1456.43474	1137.60119	1166.61453	1019.38151	1010.92326	859.26359	875.94551	779.33499	881.33238	902.92618	807.01125	1086.97992	1063.81736	1152.72077	1151.02214	71.08922	70.85752	73.55150	41.17088	33.37734	69.79235	42.31751	39.17354	28.32367	29.49257	507.52074	517.50869	534.72024	523.05113	669.19970	676.19676	312.86321	372.18388	338.84191	305.63929	339.82153	332.06584	1446.10394	1846.10394	1476.10394	1446.10394	1846.10394	1616.10394	1646.10394	1846.10394	1616.10394	859.26359	881.33238	
1826	14.25781	1560.92399	1530.49932	1547.54363	1467.18573	1278.94948	1456.64198	1137.49598	1166.17315	1019.58392	1011.36362	859.82139	876.58216	780.06846	881.57315	903.39961	807.68797	1087.05678	1064.07991	1151.77529	1150.07698	71.09858	70.82244	73.59316	41.13370	33.47975	69.83400	42.56237	39.29864	28.53035	29.64742	507.57536	517.13426	534.61521	522.97879	669.12408	676.08881	312.66376	372.05322	338.76534	305.45698	339.68324	331.87427	1446.32231	1846.32231	1476.32231	1446.32231	1846.32231	1616.32231	1646.32231	1846.32231	1616.32231	859.82139	881.57315	
1827	14.26562	1561.00789	1530.57725	1547.88988	1468.38109	1277.91204	1457.68704	1137.37924	1165.72108	1019.75652	1011.82611	860.30452	877.28546	780.78193	881.77667	903.81816	808.24459	1087.21877	1064.17736	1150.82893	1149.15562	71.08915	70.85637	73.60060	41.11571	33.53362	69.84144	42.55337	39.41415	28.74069	29.74730	507.51083	516.95721	534.28272	522.94067	669.09203	676.07314	312.43111	372.08878	338.80017	305.05953	339.43470	331.75430	1446.49167	1846.49167	1476.49167	1446.49167	1846.49167	1616.49167	1646.49167	1846.49167	1616.49167	860.30452	881.77667	
1828	14.27344	1561.17389	1530.55175	1548.24054	1469.37504	1276.95991	1457.86384	1137.25287	1165.23983	1019.89008	1012.24227	860.80207	877.89055	781.43851	881.88324	904.22119	808.69090	1087.36795	1064.24450	1149.89323	1148.17803	71.01260	70.84012	73.56501	41.09176	33.60109	69.80585	42.54742	39.63903	28.84993	29.84749	507.43641	516.92757	534.18226	522.88404	669.10931	676.12236	312.23010	372.04767	338.74929	304.88570	339.13109	331.53415	1446.65539	1846.65539	1476.65539	1446.65539	1846.65539	1616.65539	1646.65539	1846.65539	1616.65539	860.80207	881.88324	
1829	14.28125	1561.30380	1530.48124	1548.55305	1470.46891	1275.98202	1458.85241	1137.06101	1164.70005	1019.94821	1012.71941	861.31986	878.58656	781.99090	881.95030	904.49147	809.03193	1087.54583	1064.25474	1149.00285	1147.24730	71.05673	70.79452	73.48812	41.07796	33.64649	69.72896	42.30078	39.62979	28.96357	29.90369	507.29295	516.72842	534.00968	522.87600	669.08100	675.75453	312.24856	371.88474	338.60203	304.63867	338.86799	331.18903	1446.77936	1846.77936	1476.77936	1446.77936	1846.77936	1616.77936	1646.77936	1846.77936	1616.77936	861.31986	881.95030	
1830	14.28906	1561.42316	1530.43734	1548.82380	1471.47987	1275.00047	1458.78810	1136.91781	1164.10472	1019.91879	1013.18803	861.92006	879.24333	782.77600	881.99147	904.64449	809.29592	1087.77387	1064.26249	1148.13090	1146.37410	71.08611	70.78109	73.54922	41.09164	33.60530	69.79006	42.26966	39.82756	29.06988	29.97824	507.21119	516.39365	533.72265	522.74271	669.01830	675.71454	312.26322	371.66002	338.30237	304.39176	338.68719	330.89691	1446.89476	1846.89476	1476.89476	1446.89476	1846.89476	1616.89476	1646.89476	1846.89476	1616.89476	861.92006	881.99147	
1831	14.29688	1561.50998	1530.38587	1549.06933	1472.46448	1273.99482	1459.10444	1136.75400	1163.45888	1019.87285	1013.59105	862.46800	879.92814	783.57046	881.89790	904.74833	809.46631	1087.98335	1064.17056	1147.27888	1145.50971	71.12110	70.74408	73.48114	41.13106	33.63629	69.72198	42.29828	39.70397	29.13979	29.99583	507.04887	516.31271	533.63636	522.68065	669.05980	675.89006	312.16426	371.59165	338.42184	304.23609	338.46793	330.64393	1446.98839	1846.98839	1476.98839	1446.98839	1846.98839	1616.98839	1646.98839	1846.98839	1616.98839	862.46800	881.89790	
1832	14.30469	1561.44073	1530.16709	1549.21661	1473.13466	1273.02327	1459.48964	1136.51261	1162.75732	1019.78234	1014.02296	863.04945	880.54905	784.21600	881.91343	904.86030	809.52997	1088.08321	1064.20416	1146.37858	1144.57674	71.16057	70.77531	73.52218	41.14351	33.59392	69.76302	42.57629	39.94431	29.17256	30.03096	506.94483	516.10214	533.44519	522.58759	669.12376	675.77414	312.57806	371.48997	337.77013	303.99631	338.14841	330.47981	1446.94148	1846.94148	1476.94148	1446.94148	1846.94148	1616.94148	1646.94148	1846.94148	1616.94148	863.04945	881.91343	
1833	14.31250	1561.50654	1529.97739	1549.39207	1474.08914	1272.05361	1459.75224	1136.38568	1162.06304	1019.66914	1014.45849	863.61747	881.15746	784.88479	882.14306	904.86328	809.48283	1088.18006	1064.21038	1145.53080	1143.72618	71.10674	70.77798	73.45438	41.15262	33.62980	69.69522	42.60184	39.79998	29.20453	30.04978	506.91473	515.95168	533.20444	522.53917	669.15889	675.54033	312.51000	371.35303	337.61111	303.74428	337.98038	330.27740	1446.95867	1846.95867	1476.95867	1446.95867	1846.95867	1616.95867	1646.95867	1846.95867	1616.95867	863.61747	882.14306	
1834	14.32031	1561.46915	1529.92408	1549.53104	1474.82644	1271.12357	1459.84537	1136.22558	1161.29177	1019.47716	1014.86325	864.13900	881.72124	785.64588	881.91372	904.79793	809.37501	1088.27536	1064.18936	1144.69756	1142.88596	71.12814	70.73162	73.37828	41.12691	33.68747	69.61912	42.57793	39.81822	29.23514	30.05296	506.84385	515.71947	533.12954	522.50952	669.15060	675.30509	311.72690	371.18537	337.81798	303.54930	337.86150	330.13877	1446.97476	1846.97476	1476.97476	1446.97476	1846.97476	1616.97476	1646.97476	1846.97476	1616.97476	864.13900	881.91372	
1835	14.32812	1561.41201	1529.61813	1549.62440	1475.49060	1270.16039	1459.91639	1136.08916	1160.45971	1019.23222	1015.27462	864.69916	882.38170	786.48418	881.55672	904.34137	809.23254	1088.47305	1064.22865	1143.84764	1142.15543	71.21572	70.72004	73.40072	41.14879	33.63812	69.64156	42.32887	39.77808	29.25110	29.89582	506.70324	515.65184	532.99145	522.42802	669.23776	675.23317	311.70563	370.99264	338.02633	303.38183	337.65073	329.92261	1446.88485	1846.88485	1476.88485	1446.88485	1846.88485	1616.88485	1646.88485	1846.88485	1616.88485	864.69916	881.55672	
1836	14.33594	1561.27952	1529.37762	1549.72967	1476.15905	1269.21771	1459.86270	1135.94179	1159.64218	1018.94681	1015.66585	865.26998	882.93195	787.18816	881.44429	904.47112	808.98859	1088.64844	1064.24152	1143.08253	1141.31081	71.18294	70.67268	73.28065	41.11744	33.66934	69.52149	42.66092	39.78862	29.27182	30.09901	506.66628	515.52499	532.95298	522.33289	669.22107	675.18291	311.69946	370.87763	337.90100	303.26636	337.30689	329.69243	1446.79560	1846.79560	1476.79560	1446.79560	1846.79560	1616.79560	1646.79560	1846.79560	1616.79560	865.26998	881.44429	
1837	14.34375	1561.20066	1529.02619	1549.80953	1476.80860	1268.29624	1459.78588	1135.79233	1158.58484	1018.59888	1016.04178	865.74121	883.54862	787.96147	881.04075	904.01946	808.72178	1088.72573	1064.27804	1142.24062	1140.43672	71.15250	70.64333	73.17706	41.03176	33.66429	69.41790	42.65592	39.83398	29.27020	30.12845	506.57153	515.44624	532.80859	522.30346	669.21918	675.14449	311.45169	370.66373	337.73675	302.90405	337.16940	329.57102	1446.67879	1846.67879	1476.67879	1446.67879	1846.67879	1616.67879	1646.67879	1846.67879	1616.67879	865.74121	881.04075	
1838	14.35156	1561.03423	1528.69454	1549.84476	1477.32689	1267.28094	1459.72594	1135.63255	1157.68416	1018.32643	1016.40061	866.30120	884.13452	788.28964	880.78039	903.73734	808.39558	1088.83640	1064.37765	1141.40807	1139.65714	71.19458	70.64373	73.21378	41.07018	33.72682	69.45462	42.63332	39.80356	29.28576	30.17483	506.46615	515.17593	532.55000	522.21471	669.23428	675.11305	311.97077	370.56553	337.11941	302.69894	336.99711	329.30996	1446.52451	1846.52451	1476.52451	1446.52451	1846.52451	1616.52451	1646.52451	1846.52451	1616.52451	866.30120	880.78039	
1839	14.35938	1560.88504	1528.33964	1549.82337	1477.97432	1266.39149	1459.14664	1135.49221	1156.68685	1017.96060	1016.76525	866.84911	884.69063	789.10364	880.51272	903.42496	808.16964	1088.90647	1064.43109	1140.58863	1138.84590	71.26836	70.62298	73.08113	41.06452	33.73808	69.32197	42.65517	39.80730	29.31967	30.23981	506.33885	515.06780	532.45329	522.12577	669.26362	675.12740	311.24990	370.51542	337.21518	302.72548	336.89698	329.14940	1446.34935	1846.34935	1476.34935	1446.34935	1846.34935	1616.34935	1646.34935	1846.34935	1616.34935	866.84911	880.51272	
1840	14.36719	1560.67245	1528.04974	1549.84464	1478.60189	1265.43966	1459.52058	1135.36775	1155.81047	1017.66215	1017.07212	867.33007	885.22689	789.83005	880.11285	903.21727	807.93484	1088.98003	1064.55567	1139.79743	1138.02580	71.26246	70.63876	73.01175	41.04971	33.78493	69.25259	42.39037	39.77695	29.38484	30.08876	506.31304	514.91071	532.26323	522.15649	669.25106	674.74542	311.04612	370.54899	337.22968	302.53480	336.86508	329.12391	1446.18894	1846.18894	1476.18894	1446.18894	1846.18894	1616.18894	1646.18894	1846.18894	1616.18894	867.33007	880.11285	
